# xmcd
#
# Track frame offsets:
# 150
# 15816
# 36031
# 53226
# 66537
# 81910
# 106921
# 123673
# 137827
# 154214
# 168312
# 185723
# 197443
# 216944
# 230245
#
# Disc length: 3269 seconds
#
#
# Revision: 0
# Processed by: cddbd v1.5.2PL0 Copyright (c) Steve Scherf et al.
# Submitted via: FreeRIP 2.951 
#
DISCID=d60cc30f
DTITLE=Victor e Léo - Acústico no bar
DYEAR=2007
DGENRE=Sertanejo
TTITLE0=Sinto falta de você
TTITLE1=Quem de nois dois
TTITLE2=Fada
TTITLE3=Agenda rabiscada
TTITLE4=Jogo da vida
TTITLE5=60 dias apaixonados
TTITLE6=Minha amada
TTITLE7=Que vida boa
TTITLE8=Estou apaixonado por você
TTITLE9=Arapuca
TTITLE10=Lembranças de amor
TTITLE11=Hoje você vem
TTITLE12=Eu em você
TTITLE13=Fogo de mulher
TTITLE14=Viola e sanfona
EXTD=
EXTT0=
EXTT1=
EXTT2=
EXTT3=
EXTT4=
EXTT5=
EXTT6=
EXTT7=
EXTT8=
EXTT9=
EXTT10=
EXTT11=
EXTT12=
EXTT13=
EXTT14=
PLAYORDER=
